<?xml version="1.0" encoding="utf-8"?>
<?xml-stylesheet type="text/xsl" href="rss1.xsl"?>
<rss version="2.0" xmlns:atom="http://www.w3.org/2005/Atom" xmlns:content="http://purl.org/rss/1.0/modules/content/" xmlns:dc="http://purl.org/dc/elements/1.1/" xmlns:media="http://search.yahoo.com/mrss/">
<channel>
 <title>Getty</title>
 <link>http://www.gettyimg.com/</link>
 <atom:link href="http://www.gettyimg.com/" rel="self" type="application/rss+xml" />

 
                <item>
                <title><![CDATA[【HD Live Performances】WEB-RiP - Linkin Park - 2003.11.15 San Bernardino, California, Smoke Out Festival]]></title>
                <link><![CDATA[https://sharemania.us/threads/linkin-park-2003-11-15-san-bernardino-california-smoke-out-festival.235497/]]></link>
                <description><![CDATA[<article>
<blockquote class="messageText SelectQuoteContainer ugc baseHtml">
<div style="text-align: center"><b>Linkin Park - 2003.11.15 San Bernardino, California, Smoke Out Festival (source 1)</b><br>
<br>
<br>
<a href="https://s6.uupload.ir/files/(2024-up-date)-linkin-park-live-_-smoke-out-festival-2003-ai-4k-enhanced-i-(see-description).mp4_epzw.png" target="_blank" class="externalLink" rel="nofollow"><img src="https://s6.uupload.ir/files/(2024-up-date)-linkin-park-live-_-smoke-out-festival-2003-ai-4k-enhanced-i-(see-description).mp4_epzw.png" class="bbCodeImage LbImage" alt="[​IMG]" data-url="https://s6.uupload.ir/files/(2024-up-date)-linkin-park-live-_-smoke-out-festival-2003-ai-4k-enhanced-i-(see-description).mp4_epzw.png"></a><br>
<b><br>
<div class="ToggleTriggerAnchor bbCodeSpoilerContainer">
<button type="button" class="button bbCodeSpoilerButton ToggleTrigger Tooltip JsOnly" data-target="> .SpoilerTarget"><span>Spoiler: <span class="SpoilerTitle">Media Info</span></span></button>
<div class="SpoilerTarget bbCodeSpoilerText">Format : MPEG-4</div>
</div></b>
<div class="ToggleTriggerAnchor bbCodeSpoilerContainer">
<button type="button" class="button bbCodeSpoilerButton ToggleTrigger Tooltip JsOnly" data-target="> .SpoilerTarget"><span>Spoiler: <span class="SpoilerTitle">Media Info</span></span></button>
<div class="SpoilerTarget bbCodeSpoilerText"><b>Format profile : Base Media</b><br>
<br>
<b>Codec ID : isom (isom/iso2/avc1/mp41)</b><br>
<br>
<b>File size : 1.17 GiB</b><br>
<br>
<b>Duration : 34 min 4 s</b><br>
<br>
<b>Overall bit rate : 4 918 kb/s</b><br>
<br>
<b><br>
Video</b><br>
<br>
<b>ID : 1</b><br>
<br>
<b>Format : AVC</b><br>
<br>
<b>Format/Info : Advanced Video Codec</b><br>
<br>
<b>Format profile : High@L4.2</b><br>
<br>
<b>Format settings : CABAC / 3 Ref Frames</b><br>
<br>
<b>Format settings, CABAC : Yes</b><br>
<br>
<b>Format settings, Reference : 3 frames</b><br>
<br>
<b>Codec ID : avc1</b><br>
<br>
<b>Codec ID/Info : Advanced Video Coding</b><br>
<br>
<b>Duration : 34 min 4 s</b><br>
<br>
<b>Bit rate : 4 779 kb/s</b><br>
<br>
<b>Width : 1 920 pixels</b><br>
<br>
<b>Height : 1 080 pixels</b><br>
<br>
<b>Display aspect ratio : 16:9</b><br>
<br>
<b>Frame rate mode : Constant</b><br>
<br>
<b>Frame rate : 60.000 FPS</b><br>
<br>
<b>Color space : YUV</b><br>
<br>
<b>Chroma subsampling : 4:2:0</b><br>
<br>
<b>Bit depth : 8 bits</b><br>
<br>
<b>Scan type : Progressive</b><br>
<br>
<b>Bits/(Pixel*Frame) : 0.038</b><br>
<br>
<b>Stream size : 1.14 GiB (97%)</b><br>
<br>
<b>Title : ISO Media file produced by Google Inc.</b><br>
<br>
<b>Color range : Limited</b><br>
<br>
<b>Color primaries : BT.709</b><br>
<br>
<b>Transfer characteristics : BT.709</b><br>
<br>
<b>Matrix coefficients : BT.709</b><br>
<br>
<b>Codec configuration box : avcC</b><br>
<br>
<b><br>
Audio</b><br>
<br>
<b>ID : 2</b><br>
<br>
<b>Format : AAC LC</b><br>
<br>
<b>Format/Info : Advanced Audio Codec Low Complexity</b><br>
<br>
<b>Codec ID : mp4a-40-2</b><br>
<br>
<b>Duration : 34 min 4 s</b><br>
<br>
<b>Bit rate mode : Constant</b><br>
<br>
<b>Bit rate : 128 kb/s</b><br>
<br>
<b>Channel(s) : 2 channels</b><br>
<br>
<b>Channel layout : L R</b><br>
<br>
<b>Sampling rate : 44.1 kHz</b><br>
<br>
<b>Frame rate : 43.066 FPS (1024 SPF)</b><br>
<br>
<b>Compression mode : Lossy</b><br>
<br>
<b>Stream size : 31.2 MiB (3%)</b><br>
<br>
<b>Title : ISO Media file produced by Google Inc.</b><br>
<br>
<b>Default : Yes</b><br>
<br>
<b>Alternate group : 1<br>
</b></div>
</div><b><br>
Tracklist:</b><br>
01. Papercut<br>
02. Points Of Authority<br>
03. Don't Stay<br>
04. Somewhere I Belong<br>
05. It's Goin' Down<br>
06. Lying From You<br>
07. Nobody's Listening (feat. Xzibit)<br>
08. Breaking The Habit (Live Debut)<br>
<br>
<b>Note: This is the first concert In the World that was recorded with HD cameras</b><br>
<br>
<div class="bbCodeBlock bbCodeVfcHH HiddenContent">
<div class="attribution type">Hidden Content:</div>
<blockquote>You must either reply or click 'Like' to see the hidden information contained here.</blockquote>
</div></div>
<div class="messageTextEndMarker">&nbsp;</div>
</blockquote>
</article>]]></description>
                <author><![CDATA[lpplus]]></author>
                </item>

                
                <item>
                <title><![CDATA[【Singles (lossless)】FLAC - Night Fever by Kylie Minogue - FLAC]]></title>
                <link><![CDATA[https://sharemania.us/threads/night-fever-by-kylie-minogue-flac.235498/]]></link>
                <description><![CDATA[<article>
<blockquote class="messageText SelectQuoteContainer ugc baseHtml">
thanks
<div class="messageTextEndMarker">&nbsp;</div>
</blockquote>
</article>]]></description>
                <author><![CDATA[MusicFanatic94]]></author>
                </item>

                </channel></rss>